<mxfile host="app.diagrams.net" modified="2023-08-20T00:35:44.386Z" agent="Mozilla/5.0 (Windows NT 10.0; Win64; x64) AppleWebKit/537.36 (KHTML, like Gecko) Chrome/115.0.0.0 Safari/537.36 Edg/115.0.1901.203" etag="-dImO15WiBf9mKpAeovb" version="21.3.8" type="device">
  <diagram name="Page-1" id="1-l5LxU_AcfVhi1utv8d">
    <mxGraphModel dx="2261" dy="788" grid="1" gridSize="10" guides="1" tooltips="1" connect="1" arrows="1" fold="1" page="1" pageScale="1" pageWidth="827" pageHeight="1169" math="0" shadow="0">
      <root>
        <mxCell id="0" />
        <mxCell id="1" parent="0" />
        <mxCell id="wIpzHXX3jOVhyP-eZuq8-4" value="StaticObject(Array)" style="swimlane;whiteSpace=wrap;html=1;" vertex="1" parent="1">
          <mxGeometry x="160" y="310" width="140" height="130" as="geometry" />
        </mxCell>
        <mxCell id="wIpzHXX3jOVhyP-eZuq8-5" value="TypeSymbol" style="rounded=0;whiteSpace=wrap;html=1;" vertex="1" parent="wIpzHXX3jOVhyP-eZuq8-4">
          <mxGeometry x="30" y="30" width="80" height="40" as="geometry" />
        </mxCell>
        <mxCell id="wIpzHXX3jOVhyP-eZuq8-7" value="Java array" style="rounded=0;whiteSpace=wrap;html=1;" vertex="1" parent="wIpzHXX3jOVhyP-eZuq8-4">
          <mxGeometry x="30" y="80" width="80" height="40" as="geometry" />
        </mxCell>
        <mxCell id="wIpzHXX3jOVhyP-eZuq8-8" value="NamedTypeSymbol" style="swimlane;whiteSpace=wrap;html=1;startSize=23;" vertex="1" parent="1">
          <mxGeometry x="580" y="20" width="230" height="240" as="geometry" />
        </mxCell>
        <mxCell id="wIpzHXX3jOVhyP-eZuq8-13" value="StaticObject(NamedTypeSymbol)" style="swimlane;whiteSpace=wrap;html=1;" vertex="1" parent="wIpzHXX3jOVhyP-eZuq8-8">
          <mxGeometry x="10" y="30" width="210" height="140" as="geometry" />
        </mxCell>
        <mxCell id="wIpzHXX3jOVhyP-eZuq8-14" value="TypeSymbol" style="rounded=0;whiteSpace=wrap;html=1;" vertex="1" parent="wIpzHXX3jOVhyP-eZuq8-13">
          <mxGeometry x="60" y="30" width="85" height="40" as="geometry" />
        </mxCell>
        <mxCell id="wIpzHXX3jOVhyP-eZuq8-16" value="" style="rounded=0;whiteSpace=wrap;html=1;" vertex="1" parent="wIpzHXX3jOVhyP-eZuq8-13">
          <mxGeometry x="60" y="80" width="80" height="40" as="geometry" />
        </mxCell>
        <mxCell id="wIpzHXX3jOVhyP-eZuq8-15" value="Static fields" style="rounded=0;whiteSpace=wrap;html=1;" vertex="1" parent="wIpzHXX3jOVhyP-eZuq8-13">
          <mxGeometry x="70" y="90" width="80" height="40" as="geometry" />
        </mxCell>
        <mxCell id="wIpzHXX3jOVhyP-eZuq8-18" value="static and instance shapes" style="rounded=0;whiteSpace=wrap;html=1;" vertex="1" parent="wIpzHXX3jOVhyP-eZuq8-8">
          <mxGeometry x="50" y="180" width="120" height="50" as="geometry" />
        </mxCell>
        <mxCell id="wIpzHXX3jOVhyP-eZuq8-9" value="StaticObject(NamedTypeSymbol)" style="swimlane;whiteSpace=wrap;html=1;" vertex="1" parent="1">
          <mxGeometry x="340" y="90" width="220" height="140" as="geometry" />
        </mxCell>
        <mxCell id="wIpzHXX3jOVhyP-eZuq8-10" value="TypeSymbol" style="rounded=0;whiteSpace=wrap;html=1;" vertex="1" parent="wIpzHXX3jOVhyP-eZuq8-9">
          <mxGeometry x="65" y="30" width="80" height="40" as="geometry" />
        </mxCell>
        <mxCell id="wIpzHXX3jOVhyP-eZuq8-11" value="" style="rounded=0;whiteSpace=wrap;html=1;" vertex="1" parent="wIpzHXX3jOVhyP-eZuq8-9">
          <mxGeometry x="65" y="80" width="80" height="40" as="geometry" />
        </mxCell>
        <mxCell id="wIpzHXX3jOVhyP-eZuq8-12" value="Instance fields" style="rounded=0;whiteSpace=wrap;html=1;" vertex="1" parent="wIpzHXX3jOVhyP-eZuq8-9">
          <mxGeometry x="75" y="90" width="80" height="40" as="geometry" />
        </mxCell>
        <mxCell id="wIpzHXX3jOVhyP-eZuq8-19" style="edgeStyle=orthogonalEdgeStyle;rounded=0;orthogonalLoop=1;jettySize=auto;html=1;exitX=1;exitY=0.5;exitDx=0;exitDy=0;entryX=0;entryY=0.5;entryDx=0;entryDy=0;" edge="1" parent="1" source="wIpzHXX3jOVhyP-eZuq8-10" target="wIpzHXX3jOVhyP-eZuq8-8">
          <mxGeometry relative="1" as="geometry" />
        </mxCell>
        <mxCell id="wIpzHXX3jOVhyP-eZuq8-20" value="StaticObject(Managed pointer of local variable)" style="swimlane;whiteSpace=wrap;html=1;startSize=30;" vertex="1" parent="1">
          <mxGeometry x="-90" y="20" width="190" height="120" as="geometry">
            <mxRectangle x="-90" y="20" width="310" height="30" as="alternateBounds" />
          </mxGeometry>
        </mxCell>
        <mxCell id="wIpzHXX3jOVhyP-eZuq8-21" value="Frame" style="rounded=0;whiteSpace=wrap;html=1;" vertex="1" parent="wIpzHXX3jOVhyP-eZuq8-20">
          <mxGeometry x="15" y="40" width="75" height="30" as="geometry" />
        </mxCell>
        <mxCell id="wIpzHXX3jOVhyP-eZuq8-22" value="Index of slot" style="rounded=0;whiteSpace=wrap;html=1;" vertex="1" parent="wIpzHXX3jOVhyP-eZuq8-20">
          <mxGeometry x="15" y="80" width="75" height="30" as="geometry" />
        </mxCell>
        <mxCell id="wIpzHXX3jOVhyP-eZuq8-47" value="TypeSymbol" style="rounded=0;whiteSpace=wrap;html=1;" vertex="1" parent="wIpzHXX3jOVhyP-eZuq8-20">
          <mxGeometry x="100" y="50" width="76" height="40" as="geometry" />
        </mxCell>
        <mxCell id="wIpzHXX3jOVhyP-eZuq8-24" value="StaticObject(Managed pointer of argument)" style="swimlane;whiteSpace=wrap;html=1;startSize=30;" vertex="1" parent="1">
          <mxGeometry x="124" y="20" width="200" height="120" as="geometry" />
        </mxCell>
        <mxCell id="wIpzHXX3jOVhyP-eZuq8-26" value="Frame" style="rounded=0;whiteSpace=wrap;html=1;" vertex="1" parent="wIpzHXX3jOVhyP-eZuq8-24">
          <mxGeometry x="16" y="40" width="75" height="30" as="geometry" />
        </mxCell>
        <mxCell id="wIpzHXX3jOVhyP-eZuq8-27" value="Index of slot" style="rounded=0;whiteSpace=wrap;html=1;" vertex="1" parent="wIpzHXX3jOVhyP-eZuq8-24">
          <mxGeometry x="16" y="80" width="75" height="30" as="geometry" />
        </mxCell>
        <mxCell id="wIpzHXX3jOVhyP-eZuq8-40" value="TypeSymbol" style="rounded=0;whiteSpace=wrap;html=1;" vertex="1" parent="wIpzHXX3jOVhyP-eZuq8-24">
          <mxGeometry x="106" y="50" width="76" height="40" as="geometry" />
        </mxCell>
        <mxCell id="wIpzHXX3jOVhyP-eZuq8-28" value="StaticObject(Managed pointer of field)" style="swimlane;whiteSpace=wrap;html=1;startSize=30;" vertex="1" parent="1">
          <mxGeometry x="-90" y="150" width="200" height="120" as="geometry" />
        </mxCell>
        <mxCell id="wIpzHXX3jOVhyP-eZuq8-29" value="StaticObject" style="rounded=0;whiteSpace=wrap;html=1;" vertex="1" parent="wIpzHXX3jOVhyP-eZuq8-28">
          <mxGeometry x="15" y="40" width="75" height="30" as="geometry" />
        </mxCell>
        <mxCell id="wIpzHXX3jOVhyP-eZuq8-30" value="FieldProperty" style="rounded=0;whiteSpace=wrap;html=1;" vertex="1" parent="wIpzHXX3jOVhyP-eZuq8-28">
          <mxGeometry x="15" y="80" width="75" height="30" as="geometry" />
        </mxCell>
        <mxCell id="wIpzHXX3jOVhyP-eZuq8-46" value="TypeSymbol" style="rounded=0;whiteSpace=wrap;html=1;" vertex="1" parent="wIpzHXX3jOVhyP-eZuq8-28">
          <mxGeometry x="100" y="50" width="80" height="40" as="geometry" />
        </mxCell>
        <mxCell id="wIpzHXX3jOVhyP-eZuq8-32" value="StaticObject(Managed pointer of array)" style="swimlane;whiteSpace=wrap;html=1;startSize=30;" vertex="1" parent="1">
          <mxGeometry x="124" y="150" width="200" height="120" as="geometry" />
        </mxCell>
        <mxCell id="wIpzHXX3jOVhyP-eZuq8-33" value="StaticObject" style="rounded=0;whiteSpace=wrap;html=1;" vertex="1" parent="wIpzHXX3jOVhyP-eZuq8-32">
          <mxGeometry x="16" y="40" width="75" height="30" as="geometry" />
        </mxCell>
        <mxCell id="wIpzHXX3jOVhyP-eZuq8-34" value="Index" style="rounded=0;whiteSpace=wrap;html=1;" vertex="1" parent="wIpzHXX3jOVhyP-eZuq8-32">
          <mxGeometry x="16" y="80" width="75" height="30" as="geometry" />
        </mxCell>
        <mxCell id="wIpzHXX3jOVhyP-eZuq8-45" value="TypeSymbol" style="rounded=0;whiteSpace=wrap;html=1;" vertex="1" parent="wIpzHXX3jOVhyP-eZuq8-32">
          <mxGeometry x="106" y="50" width="80" height="40" as="geometry" />
        </mxCell>
        <mxCell id="wIpzHXX3jOVhyP-eZuq8-35" value="Context" style="swimlane;whiteSpace=wrap;html=1;" vertex="1" parent="1">
          <mxGeometry x="360" y="300" width="115" height="150" as="geometry" />
        </mxCell>
        <mxCell id="wIpzHXX3jOVhyP-eZuq8-38" value="" style="rounded=0;whiteSpace=wrap;html=1;" vertex="1" parent="wIpzHXX3jOVhyP-eZuq8-35">
          <mxGeometry x="15" y="30" width="80" height="40" as="geometry" />
        </mxCell>
        <mxCell id="wIpzHXX3jOVhyP-eZuq8-36" value="array shape" style="rounded=0;whiteSpace=wrap;html=1;" vertex="1" parent="wIpzHXX3jOVhyP-eZuq8-35">
          <mxGeometry x="25" y="40" width="80" height="40" as="geometry" />
        </mxCell>
        <mxCell id="wIpzHXX3jOVhyP-eZuq8-39" value="" style="rounded=0;whiteSpace=wrap;html=1;" vertex="1" parent="wIpzHXX3jOVhyP-eZuq8-35">
          <mxGeometry x="15" y="90" width="80" height="40" as="geometry" />
        </mxCell>
        <mxCell id="wIpzHXX3jOVhyP-eZuq8-37" value="managed pointer shape" style="rounded=0;whiteSpace=wrap;html=1;" vertex="1" parent="wIpzHXX3jOVhyP-eZuq8-35">
          <mxGeometry x="25" y="100" width="80" height="40" as="geometry" />
        </mxCell>
        <mxCell id="wIpzHXX3jOVhyP-eZuq8-41" value="StaticObject(String)" style="swimlane;whiteSpace=wrap;html=1;" vertex="1" parent="1">
          <mxGeometry x="500" y="280" width="135" height="190" as="geometry" />
        </mxCell>
        <mxCell id="wIpzHXX3jOVhyP-eZuq8-42" value="length" style="rounded=0;whiteSpace=wrap;html=1;" vertex="1" parent="wIpzHXX3jOVhyP-eZuq8-41">
          <mxGeometry x="9" y="30" width="91" height="40" as="geometry" />
        </mxCell>
        <mxCell id="wIpzHXX3jOVhyP-eZuq8-54" value="TypeSymbol" style="rounded=0;whiteSpace=wrap;html=1;" vertex="1" parent="wIpzHXX3jOVhyP-eZuq8-41">
          <mxGeometry x="9" y="80" width="90" height="40" as="geometry" />
        </mxCell>
        <mxCell id="wIpzHXX3jOVhyP-eZuq8-43" value="StaticObject(Array of char)" style="rounded=0;whiteSpace=wrap;html=1;" vertex="1" parent="wIpzHXX3jOVhyP-eZuq8-41">
          <mxGeometry x="9" y="130" width="111" height="50" as="geometry" />
        </mxCell>
      </root>
    </mxGraphModel>
  </diagram>
</mxfile>
